<svg width="156" height="160" viewBox="0 0 156 160" fill="none" xmlns="http://www.w3.org/2000/svg">
<path d="M113.397 86.5875C114.544 86.5875 115.463 85.6691 115.463 84.5212V72.4397C115.463 70.5457 117.012 68.996 118.906 68.996H128.577C130.471 68.996 132.021 70.5457 132.021 72.4397V84.5212C132.021 85.6691 132.939 86.5875 134.087 86.5875C135.235 86.5875 136.153 85.6691 136.153 84.5212V72.4397C136.153 68.2499 132.767 64.8636 128.577 64.8636H118.906C114.717 64.8636 111.33 68.2499 111.33 72.4397V84.5212C111.33 85.6691 112.249 86.5875 113.397 86.5875Z" fill="black"/>
<path d="M82.6334 74.0754C83.7813 74.0754 84.6996 73.1571 84.6996 72.0092V57.9189C84.6996 55.5083 86.651 53.5856 89.0328 53.5856H100.311C102.693 53.5856 104.644 55.537 104.644 57.9189V72.0092C104.644 73.1571 105.562 74.0754 106.71 74.0754C107.858 74.0754 108.777 73.1571 108.777 72.0092V57.9189C108.777 53.2412 104.96 49.4245 100.282 49.4245H89.0041C84.3265 49.4245 80.5098 53.2412 80.5098 57.9189V72.0092C80.5672 73.1571 81.4855 74.0754 82.6334 74.0754Z" fill="black"/>
<path d="M55.3136 86.5875C56.4615 86.5875 57.3798 85.6691 57.3798 84.5212V72.4397C57.3798 70.5457 58.9295 68.996 60.8235 68.996H70.4945C72.3885 68.996 73.9381 70.5457 73.9381 72.4397V84.5212C73.9381 85.6691 74.8565 86.5875 76.0043 86.5875C77.1522 86.5875 78.0705 85.6691 78.0705 84.5212V72.4397C78.0705 68.2499 74.6843 64.8636 70.4945 64.8636H60.8235C56.6337 64.8636 53.2474 68.2499 53.2474 72.4397V84.5212C53.2474 85.6691 54.1657 86.5875 55.3136 86.5875Z" fill="black"/>
<path d="M140.487 107.077C138.65 104.437 135.321 103.232 132.251 104.064L113.741 108.77C112.622 109.057 111.962 110.177 112.249 111.296C112.536 112.415 113.655 113.075 114.774 112.788L133.341 108.053C134.747 107.68 136.268 108.196 137.101 109.43C137.675 110.263 137.847 111.267 137.617 112.243C137.388 113.218 136.756 114.022 135.838 114.481L90.1519 137.984L54.9978 126.936C54.7682 126.878 54.5674 126.85 54.3378 126.85L47.4217 127.022V99.8169H60.7373L81.1123 107.192C81.3419 107.278 81.6001 107.307 81.8584 107.307L99.5359 106.905C101.946 106.905 103.927 108.885 103.927 111.296C103.927 113.735 101.946 115.686 99.5359 115.686H78.013C73.7945 115.686 70.0925 118.384 68.7725 122.402C68.4281 123.492 69.0021 124.669 70.0925 125.013C70.3221 125.07 70.523 125.128 70.7526 125.128C71.6135 125.128 72.4457 124.583 72.7327 123.693C73.4788 121.397 75.6311 119.848 78.0417 119.848H99.5646C104.271 119.848 108.116 116.002 108.116 111.296C108.116 106.589 104.271 102.744 99.5359 102.744L82.2028 103.117L61.8564 95.7706C61.6269 95.6845 61.3973 95.6558 61.139 95.6558H47.4504V95.4262C47.4504 92.2982 44.8964 89.7441 41.7684 89.7441H15.6252C14.9652 89.7441 14.3051 90.0598 13.9321 90.6337C13.5303 91.179 13.4442 91.8964 13.6738 92.5278L29.6869 137.095C29.9738 137.927 30.7774 138.472 31.6383 138.472H41.7397C44.8677 138.472 47.4217 135.918 47.4217 132.79V131.154L54.0795 130.982L89.7214 142.174C89.9223 142.231 90.1232 142.26 90.3528 142.26C90.6685 142.26 91.0128 142.174 91.2998 142.03L137.732 118.126C139.683 117.121 141.089 115.313 141.635 113.19C142.151 111.124 141.721 108.856 140.487 107.077Z" fill="black"/>
<path d="M94.84 27.0971C89.2369 27.0971 84.6785 31.6555 84.6785 37.2585C84.6785 42.8615 89.2369 47.42 94.84 47.42C100.443 47.42 105.001 42.8615 105.001 37.2585C105.001 31.6555 100.443 27.0971 94.84 27.0971ZM98.3893 34.2101C98.5919 34.2049 98.7935 34.2404 98.9822 34.3143C99.1709 34.3883 99.3429 34.4993 99.488 34.6408C99.6331 34.7823 99.7484 34.9514 99.8271 35.1382C99.9058 35.3249 99.9463 35.5256 99.9462 35.7282C99.9461 35.9309 99.9055 36.1315 99.8267 36.3182C99.7478 36.5049 99.6324 36.674 99.4872 36.8153C99.342 36.9567 99.17 37.0676 98.9813 37.1415C98.7925 37.2153 98.5909 37.2506 98.3883 37.2453C97.9926 37.235 97.6166 37.0704 97.3405 36.7869C97.0643 36.5033 96.9099 36.123 96.91 35.7272C96.9101 35.3314 97.0648 34.9513 97.3412 34.6679C97.6175 34.3845 97.9936 34.2202 98.3893 34.2101ZM91.2835 34.2101C91.4837 34.2102 91.6819 34.2497 91.8669 34.3264C92.0519 34.403 92.2199 34.5154 92.3614 34.657C92.503 34.7987 92.6152 34.9668 92.6918 35.1518C92.7684 35.3368 92.8077 35.5351 92.8077 35.7353C92.8076 35.9356 92.7681 36.1338 92.6914 36.3188C92.6147 36.5037 92.5024 36.6718 92.3607 36.8133C92.2191 36.9549 92.051 37.0671 91.866 37.1437C91.6809 37.2202 91.4827 37.2596 91.2824 37.2595C90.8781 37.2594 90.4903 37.0986 90.2044 36.8126C89.9186 36.5266 89.7581 36.1387 89.7582 35.7343C89.7584 35.3299 89.9191 34.9422 90.2052 34.6563C90.4912 34.3705 90.8791 34.21 91.2835 34.2101ZM94.84 43.3554C90.7754 43.3554 89.7592 39.2908 89.7592 39.2908H99.9207C99.9207 39.2908 98.9045 43.3554 94.84 43.3554Z" fill="black"/>
<path d="M66.0493 47.4199C61.3801 47.4199 57.5814 51.2186 57.5814 55.8878C57.5814 60.5569 61.3801 64.3556 66.0493 64.3556C70.7184 64.3556 74.5171 60.5569 74.5171 55.8878C74.5171 51.2186 70.7184 47.4199 66.0493 47.4199ZM69.0071 53.3474C69.1759 53.3431 69.3439 53.3726 69.5012 53.4343C69.6584 53.4959 69.8017 53.5884 69.9226 53.7063C70.0435 53.8243 70.1396 53.9652 70.2052 54.1208C70.2708 54.2764 70.3046 54.4436 70.3045 54.6125C70.3044 54.7814 70.2706 54.9486 70.2049 55.1042C70.1392 55.2598 70.043 55.4006 69.922 55.5185C69.801 55.6363 69.6576 55.7287 69.5004 55.7902C69.3431 55.8518 69.1751 55.8812 69.0062 55.8768C68.6765 55.8681 68.3632 55.731 68.133 55.4947C67.9029 55.2584 67.7742 54.9415 67.7743 54.6117C67.7744 54.2818 67.9034 53.9651 68.1336 53.7289C68.3639 53.4927 68.6773 53.3558 69.0071 53.3474ZM63.0855 53.3474C63.2524 53.3475 63.4176 53.3804 63.5717 53.4443C63.7259 53.5082 63.8659 53.6018 63.9839 53.7199C64.1018 53.8379 64.1953 53.978 64.2591 54.1322C64.3229 54.2864 64.3558 54.4516 64.3557 54.6184C64.3556 54.7853 64.3227 54.9505 64.2588 55.1046C64.1949 55.2588 64.1013 55.3988 63.9833 55.5168C63.8652 55.6347 63.7251 55.7283 63.5709 55.7921C63.4168 55.8559 63.2515 55.8887 63.0847 55.8886C62.7477 55.8885 62.4246 55.7545 62.1864 55.5162C61.9481 55.2778 61.8144 54.9546 61.8145 54.6176C61.8146 54.2806 61.9486 53.9575 62.187 53.7193C62.4253 53.4811 62.7485 53.3473 63.0855 53.3474ZM66.0493 60.9685C62.6621 60.9685 61.8153 57.5813 61.8153 57.5813H70.2832C70.2832 57.5813 69.4364 60.9685 66.0493 60.9685Z" fill="black"/>
<path d="M123.631 47.4199C118.961 47.4199 115.163 51.2186 115.163 55.8878C115.163 60.5569 118.961 64.3556 123.631 64.3556C128.3 64.3556 132.098 60.5569 132.098 55.8878C132.098 51.2186 128.3 47.4199 123.631 47.4199ZM126.588 53.3474C126.757 53.3431 126.925 53.3726 127.083 53.4343C127.24 53.4959 127.383 53.5884 127.504 53.7063C127.625 53.8243 127.721 53.9652 127.787 54.1208C127.852 54.2764 127.886 54.4436 127.886 54.6125C127.886 54.7814 127.852 54.9486 127.786 55.1042C127.721 55.2598 127.624 55.4006 127.503 55.5185C127.382 55.6363 127.239 55.7287 127.082 55.7902C126.924 55.8518 126.756 55.8812 126.588 55.8768C126.258 55.8681 125.945 55.731 125.714 55.4947C125.484 55.2584 125.356 54.9415 125.356 54.6117C125.356 54.2818 125.485 53.9651 125.715 53.7289C125.945 53.4927 126.259 53.3558 126.588 53.3474ZM120.667 53.3474C120.834 53.3475 120.999 53.3804 121.153 53.4443C121.307 53.5082 121.447 53.6018 121.565 53.7199C121.683 53.8379 121.777 53.978 121.841 54.1322C121.904 54.2864 121.937 54.4516 121.937 54.6184C121.937 54.7853 121.904 54.9505 121.84 55.1046C121.776 55.2588 121.683 55.3988 121.565 55.5168C121.447 55.6347 121.306 55.7283 121.152 55.7921C120.998 55.8559 120.833 55.8887 120.666 55.8886C120.329 55.8885 120.006 55.7545 119.768 55.5162C119.53 55.2778 119.396 54.9546 119.396 54.6176C119.396 54.2806 119.53 53.9575 119.768 53.7193C120.007 53.4811 120.33 53.3473 120.667 53.3474ZM123.631 60.9685C120.243 60.9685 119.397 57.5813 119.397 57.5813H127.865C127.865 57.5813 127.018 60.9685 123.631 60.9685Z" fill="black"/>
</svg>
