<?xml version="1.0" encoding="UTF-8"?><svg id="design" xmlns="http://www.w3.org/2000/svg" viewBox="0 0 1600.2 1600.16"><defs><style>.cls-1,.cls-2{stroke-width:0px;}.cls-3{isolation:isolate;}.cls-2{fill:#fff;}</style></defs><path class="cls-1" d="M295.39,224.56c11.33,0,22.67.02,34,0,19.69-.04,31.43-9.05,36.55-28.12,6.05-22.52,12.05-45.05,18.1-67.57,5.32-19.8,23.04-30,42.85-24.7,22.52,6.03,45.03,12.12,67.57,18.11,19.19,5.1,32.66-.54,42.55-17.69,11.57-20.06,23.09-40.14,34.74-60.15,10.63-18.26,29.64-23.52,48-13.1,20.29,11.5,40.39,23.33,60.6,34.96,17.1,9.84,31.77,7.79,45.66-6.14,16.7-16.76,33.43-33.5,50.2-50.2,13.3-13.24,34.4-13.3,47.68-.09,16.78,16.68,33.5,33.43,50.2,50.19,13.95,14.01,28.62,16.1,45.64,6.31,19.93-11.46,39.77-23.07,59.74-34.46,19.51-11.13,38.17-6.1,49.44,13.28,11.39,19.58,22.69,39.22,33.98,58.85,10.25,17.83,23.42,23.42,43.2,18.16,22.21-5.91,44.41-11.88,66.6-17.85,20.52-5.52,38.06,4.49,43.53,24.9,6,22.36,12,44.72,17.98,67.08,5.15,19.25,16.93,28.26,36.97,28.25,22.67,0,45.33-.02,68-.02s36.45,13.62,36.46,36.34c.01,22.83-.02,45.67.01,68.5.03,19.69,9.11,31.45,28.11,36.55,22.36,6,44.72,11.98,67.07,17.99,20.53,5.52,30.56,23,25.04,43.43-6.17,22.83-12.29,45.67-18.36,68.53-4.57,17.22,1.32,31.37,16.78,40.33,20.18,11.7,40.4,23.31,60.6,34.97,19.32,11.15,24.54,29.96,13.46,49.42-11.45,20.12-23.18,40.09-34.72,60.17-9.49,16.49-7.41,31.42,6.06,44.87,16.75,16.72,33.47,33.46,50.2,50.2,13.72,13.73,13.78,34.67.08,48.38-16.84,16.86-33.69,33.71-50.55,50.55-13.18,13.17-15.19,28.33-5.86,44.5,12.15,21.07,24.58,41.98,36.35,63.26,8.96,16.19,3.43,35.1-12.34,44.82-3.97,2.45-8.04,4.73-12.08,7.06-17.03,9.82-34.09,19.59-51.1,29.44-15.64,9.05-21.44,23.16-16.77,40.75,6.08,22.86,12.2,45.7,18.35,68.53,5.34,19.81-4.66,37.5-24.54,42.93-22.33,6.1-44.71,12.01-67.07,17.99-19.93,5.33-28.7,16.78-28.71,37.57-.01,22.5,0,45,0,67.5s-13.64,36.45-36.34,36.46c-22.67,0-45.33,0-68-.02-20.28-.01-31.91,8.95-37.17,28.62-5.98,22.36-11.97,44.73-17.98,67.08-5.32,19.78-23,29.99-42.86,24.7-22.53-6.01-45.03-12.12-67.56-18.12-19.18-5.11-32.65.55-42.54,17.7-11.48,19.92-22.91,39.85-34.46,59.73-10.93,18.82-29.8,24.02-48.72,13.27-20.27-11.52-40.38-23.34-60.6-34.97-16.5-9.49-31.44-7.41-44.88,6.06-16.83,16.87-33.66,33.74-50.55,50.55-13.3,13.24-34.39,13.29-47.68.08-16.78-16.68-33.5-33.43-50.19-50.2-13.92-13.99-28.61-16.09-45.65-6.29-20.22,11.63-40.32,23.46-60.6,34.96-18.45,10.46-37.31,5.25-48.06-12.93-1.69-2.87-3.38-5.74-5.05-8.62-9.9-17.17-19.8-34.34-29.68-51.53-9.89-17.21-23.36-22.92-42.49-17.83-22.21,5.91-44.4,11.89-66.6,17.86-21.19,5.71-38.42-4.12-44.12-25.28-6.03-22.35-11.97-44.73-18-67.08-5.04-18.66-16.91-27.73-36.34-27.76-22.67-.03-45.33.01-68,.01s-36.95-13.43-36.96-36.85c0-22.67.03-45.33,0-68-.03-19.68-9.1-31.45-28.11-36.55-22.36-6-44.73-11.93-67.07-17.99-20.78-5.63-30.58-23.11-24.92-43.92,6.21-22.82,12.33-45.67,18.37-68.53,4.39-16.63-1.54-30.87-16.49-39.57-20.3-11.81-40.69-23.48-61.02-35.23-19.32-11.17-24.52-30-13.45-49.42,11.47-20.12,23.15-40.11,34.73-60.16,9.37-16.23,7.41-31.39-5.72-44.52-16.85-16.85-33.71-33.69-50.55-50.55-13.73-13.73-13.77-34.66-.07-48.38,16.84-16.86,33.69-33.71,50.55-50.55,13.18-13.17,15.19-28.33,5.85-44.5-11.41-19.76-22.9-39.49-34.27-59.28-11.76-20.47-6.72-39,13.73-50.81,19.76-11.41,39.53-22.82,59.29-34.23,16-9.23,21.91-23.24,17.18-41.02-6.08-22.85-12.2-45.69-18.36-68.52-5.33-19.76,4.82-37.61,24.55-42.94,22.35-6.03,44.71-12,67.08-17.98,19.94-5.33,28.7-16.78,28.72-37.56,0-22.5,0-45,0-67.5s13.64-36.45,36.33-36.47h34.5v.02-.02ZM1493.91,799.94c-.41-381.52-308.82-690.71-688.19-693.63C421.27,103.36,109.96,413.11,106.31,793.17c-3.72,388.25,312.7,705.15,702.12,700.63,378.05-4.39,685.14-312.9,685.47-693.85h.01Z"/><path class="cls-2" d="M1493.91,799.94c-.33,380.96-307.41,689.46-685.47,693.85-389.43,4.52-705.85-312.38-702.12-700.63C109.96,413.11,421.27,103.36,805.71,106.31c379.37,2.92,687.79,312.11,688.19,693.63h.01ZM800.17,1465.02c370.46-.4,670.05-302.59,664.74-674.94-5.14-359.93-297.63-654.66-664.66-654.9-370.74-.24-670.44,302.57-664.98,675.06,5.27,360.13,298.06,654.18,664.91,654.77h0Z"/><path class="cls-1" d="M800.17,1465.02c-366.85-.59-659.64-294.64-664.91-654.77-5.46-372.49,294.25-675.3,664.98-675.06,367.04.23,659.53,294.96,664.66,654.9,5.32,372.35-294.28,674.54-664.74,674.94h.01ZM1228.84,796.46c-2.3-243.75-207.4-436.35-449.72-424.6-232.23,11.26-417.58,208.98-407.31,447.03,10.1,234.34,210.24,421.57,450.48,409.26,227.53-11.66,408.39-201.52,406.55-431.69h0ZM359.01,602.3c-28.06-15.26-55.65-30.26-83.23-45.26,2.06-.5,3.76-.11,5.46.33,28.38,7.29,56.79,14.49,85.12,21.98,3.75.99,5.36.08,6.89-3.16,2.28-4.81,4.87-9.48,7.6-14.06,1.55-2.6,1.33-4.17-1.02-6.29-13.72-12.39-27.26-24.98-40.86-37.51-9.38-8.64-18.75-17.29-28.13-25.94.2-.28.4-.57.6-.85,27.54,14.95,55.08,29.9,83.14,45.12,3.91-7.17,7.6-13.95,11.47-21.05-37.41-20.31-74.35-40.37-111.54-60.56-6.3,11.64-12.29,22.7-18.35,33.9,21.35,20.1,42.34,39.85,63.32,59.6-8.62-1.07-16.68-3-24.74-4.95-18.77-4.54-37.53-9.14-56.33-13.54-1.54-.36-4.38.07-4.97,1.09-5.95,10.34-11.56,20.87-17.41,31.63,37.39,20.31,74.32,40.37,111.51,60.57,3.94-7.23,7.51-13.79,11.47-21.05h0ZM996.73,286.89c.94-1.03,1.12-1.42,1.37-1.47,15.53-3.37,23.38-16.24,24.07-27.73.82-13.58-6.53-25.33-20.35-31.34-7.91-3.44-16.21-6.04-24.43-8.74-13.88-4.55-27.84-8.86-42.3-13.44-12.83,40.46-25.53,80.51-38.36,120.98,16.24,5.12,31.86,10.29,47.64,14.92,9.87,2.89,19.86,5.88,30.01,7.18,14.05,1.8,27.53-7.66,33.64-21.89,5.63-13.1,2.68-26.41-8.11-36.34-.94-.86-2.14-1.44-3.18-2.12h0ZM637.9,1259.6c-9.91,41.31-19.7,82.13-29.57,123.32,8.63,2.06,16.65,3.98,25.02,5.98,4.18-17.3,8.23-34.05,12.33-50.99,11.88,1.56,21.63,5.09,25.93,17.39,4.17,11.93,9.65,23.44,13.24,35.52,2.65,8.92,7.11,13.66,16.49,14.54,5.82.55,11.49,2.61,17.99,4.18-4-11.96-7.58-22.86-11.29-33.71-3.76-10.98-8.18-21.63-17.98-30.69,3.23,0,4.69.02,6.15,0,25.08-.35,41.08-22.23,33.93-46.49-3.56-12.09-12.53-18.57-23.96-21.9-12.13-3.54-24.41-6.59-36.68-9.67-10.28-2.58-20.64-4.91-31.59-7.5v.02ZM536.76,395.44c-13.45-23.51-26.66-46.6-39.88-69.69,2.81.41,4.74,1.38,6.64,2.41,24.45,13.27,48.89,26.57,73.37,39.76,1.62.87,4.14,1.98,5.39,1.33,7.05-3.66,13.83-7.82,21.07-12.01-21.15-36.87-42.05-73.31-63.11-110.03-7.24,4.17-13.82,7.96-20.73,11.94,13.75,24.04,27.24,47.62,40.73,71.19-2.36-.12-3.96-.88-5.51-1.73-25.44-13.89-50.86-27.81-76.32-41.64-1.47-.8-3.76-1.79-4.91-1.21-6.92,3.56-13.61,7.56-20.63,11.55,21.21,36.98,42.13,73.46,63.16,110.12,7.17-4.15,13.76-7.97,20.73-12h0ZM884.01,1280.22c11.74,40.92,23.32,81.31,34.98,121.95,8.06-2.34,15.35-4.46,22.97-6.67-7.45-26.06-14.75-51.63-22.06-77.21,1.68.22,2.44.84,3.16,1.49,21.44,19.51,42.86,39.03,64.35,58.48,1.37,1.24,3.55,2.93,4.93,2.61,7.71-1.82,15.29-4.19,23.42-6.51-11.72-40.88-23.26-81.14-34.96-121.93-7.88,2.26-15.29,4.39-23.01,6.6,7.65,26.76,15.12,52.9,22.6,79.05-2.08-.64-3.36-1.65-4.56-2.75-21.5-19.69-42.97-39.4-64.53-59.02-1.33-1.21-3.56-2.68-4.98-2.34-7.4,1.75-14.68,4.04-22.33,6.24h.02ZM337.57,1126.32c-10.61,9.96-13.43,10.25-24.67,2.78-.97-.64-1.94-1.3-2.86-2.01-17.23-13.21-21.28-34.27-9.27-50.18,8.92-11.82,20.96-19.53,35.15-23.4,14.7-4.01,27.52,1.49,36.72,14.79,8.39,12.14,8.29,22.75-.31,35.61-.16.24-.12.62-.23,1.3,5.55,6.02,11.26,12.19,16.95,18.36,14.89-13.77,18.55-32.88,9.89-52.71-8.5-19.45-20.7-35.58-42.46-41.34-22.88-6.06-42.84,1.35-60.64,15.27-15.47,12.1-25.64,27.61-25.35,48.13.47,32.8,27.62,61.56,54.29,70.64,1.43.49,3.63-.08,5.02-.92,8.14-4.88,16.16-9.96,24.2-15.01,5.29-3.32,10.54-6.68,16.04-10.17-9.94-15.93-19.51-31.27-29.23-46.86-6.37,4-12.22,7.66-18.21,11.42,5.29,8.57,10.16,16.47,14.98,24.28v.02ZM348.15,413.91c-.06,15.92,9.13,30.8,21.87,43.98,27.39,28.37,61.21,30.41,88.45,5.01,15.89-14.82,24.55-32.8,20.22-55.03-3.66-18.76-15.29-32.54-29.75-44.2-25.18-20.32-55.04-19.55-78.86,2.31-13.05,11.98-22.19,26.12-21.93,47.92h0ZM1311.59,465.91c-37.34,20.16-74.36,40.14-111.65,60.27,4.19,7.78,8.11,15.06,12.22,22.68,10.35-5.57,20.27-10.94,30.25-16.23,1.42-.75,3.26-1.79,4.58-1.45,8.94,2.31,17.8,4.96,27.21,7.65-9.86,16.25-18.62,32.19-28.92,47.09-5.87,8.49-6.58,15.24-.59,23.53,3.71,5.13,6.22,11.13,9.6,17.34,1.35-2.34,2.2-3.76,2.99-5.21,13.09-23.98,26.23-47.93,39.18-71.98,1.58-2.94,3-3.64,6.18-2.63,7.62,2.41,15.37,4.4,23.07,6.55,12.61,3.52,25.22,7.03,39.05,10.88-5.21-9.65-9.67-18.32-14.57-26.73-1.17-2-3.61-3.94-5.83-4.53-20.93-5.54-41.94-10.79-62.92-16.13-1.82-.46-3.61-1.02-6.61-1.88,17-9.22,32.76-17.77,48.98-26.56-4.14-7.69-8.05-14.97-12.19-22.67h-.03ZM1250.8,1125.8c11.96-17.91,23.49-35.18,35.27-52.84-6.13-4.1-11.86-7.93-17.93-12-11.94,17.87-23.54,35.24-35.32,52.88-7.99-5.36-15.4-10.33-23.11-15.5,12.71-19.07,25.15-37.75,37.86-56.84-6.07-4.03-11.83-7.87-18.02-11.98-17.47,26.2-34.7,52.06-52.21,78.33,35.4,23.6,70.37,46.91,105.63,70.43,18.04-27.08,35.72-53.62,53.55-80.38-6.21-4.13-11.85-7.89-17.92-11.92-13.17,19.72-26.08,39.05-39.28,58.82-9.61-6.4-18.84-12.55-28.54-19h.02ZM1180.23,1281.48c23.89-21.99,47.35-43.59,71.06-65.42-5.07-5.51-9.73-10.58-14.57-15.83-17.65,16.2-34.77,31.92-52.12,47.85-7.87-8.56-15.38-16.73-23.12-25.16,15.77-14.55,31.13-28.72,46.69-43.07-5.06-5.51-9.72-10.6-14.55-15.86-15.85,14.56-31.22,28.68-46.81,43-6.57-7.13-12.6-13.68-18.84-20.44,17.01-15.68,33.58-30.96,50.25-46.34-5.17-5.55-9.8-10.53-14.72-15.83-23.12,21.28-45.98,42.32-69.2,63.69,28.7,31.19,57.06,62.03,85.93,93.41h0ZM681.08,200.99c-30.37,8.58-60.22,17.01-90.54,25.57,11.58,40.96,23,81.37,34.51,122.1,31.33-8.85,61.86-17.47,92.87-26.22-2.02-7.16-3.9-13.78-5.85-20.69-22.94,6.45-45.3,12.73-68.09,19.14-3.16-11.21-6.16-21.86-9.29-32.94,20.6-5.84,40.69-11.53,61.19-17.33-2.04-7.16-3.94-13.8-5.9-20.65-20.77,5.84-40.86,11.48-61.2,17.2-2.6-9.31-4.99-17.9-7.48-26.8,22.22-6.3,43.88-12.45,65.71-18.64-2.08-7.27-3.95-13.78-5.94-20.74h0ZM1110.87,426.07c8.16-44.55,16.16-88.1,23.99-131.67.23-1.3-.9-3.48-2.07-4.29-5.33-3.7-11.02-6.88-16.34-10.6-2.97-2.08-5.02-1.74-7.85.37-28.96,21.62-58.03,43.08-87.07,64.6-5.96,4.42-11.89,8.89-18.47,13.81,7.55,4.73,14.35,9.16,21.37,13.21,1.04.6,3.45-.16,4.66-1.06,6.3-4.64,12.48-9.45,18.56-14.38,2.03-1.65,3.51-1.61,5.66-.23,12.06,7.72,24.16,15.38,36.38,22.84,2.81,1.71,3.32,3.5,2.64,6.53-1.68,7.47-3.13,15-4.4,22.55-.24,1.45.26,3.86,1.28,4.55,6.86,4.64,13.96,8.94,21.66,13.77h0ZM749.66,1412.35c8.09,0,15.53-.17,22.96.08,3.35.11,4.6-1.34,5.51-4.26,2.28-7.31,4.71-14.58,7.44-21.73.53-1.39,2.64-3.03,4.07-3.09,14.47-.55,28.96-.72,43.44-1.16,2.99-.09,4.38,1.03,5.42,3.8,2.7,7.16,5.69,14.22,8.73,21.24.58,1.34,1.93,3.31,2.98,3.34,8.54.27,17.1.15,25.56.15.08-1.61.21-1.98.1-2.25-17.18-40.45-34.36-80.89-51.68-121.28-.52-1.21-2.62-2.43-4.01-2.46-6.65-.16-13.32.29-19.97.11-3.52-.1-4.83,1.44-5.94,4.51-13.89,38.34-27.92,76.63-41.9,114.94-.95,2.6-1.77,5.23-2.73,8.05h.02ZM455.61,1309.38c7.8,4.16,14.92,8.09,22.19,11.69.99.49,3.14-.22,4.15-1.08,5.93-5.1,11.75-10.35,17.46-15.7,1.93-1.81,3.46-2.44,6.05-1.03,12.71,6.95,25.5,13.75,38.34,20.46,2.45,1.28,3.25,2.7,2.82,5.49-1.19,7.73-2.1,15.51-2.97,23.29-.15,1.33,0,3.55.79,4.01,7.55,4.33,15.27,8.37,23.47,12.78,1.63-14.9,3.14-28.8,4.66-42.7,3.26-29.8,6.47-59.61,9.84-89.39.34-3.01-.57-4.52-3.19-5.81-5.38-2.64-10.77-5.33-15.84-8.5-3.51-2.19-5.69-1.45-8.64,1.1-26.33,22.77-52.81,45.36-79.23,68.03-6.52,5.6-12.97,11.29-19.92,17.34l.02.02ZM433.22,1121.05c-1.79,1.86-3.41,3.5-4.97,5.19-12.1,13.08-24.34,26.05-36.24,39.31-7.56,8.42-14.95,17.02-21.83,25.99-8,10.43-9.34,22.31-4.88,34.57,5.38,14.78,16.75,24.7,29.11,33.33,17.6,12.29,34.99,11.34,50.41-3.57,15.08-14.57,29.11-30.22,43.54-45.46,6.38-6.74,12.58-13.65,19.1-20.74-6.47-5.98-12.55-11.59-19.29-17.82-1.01,1.38-1.71,2.54-2.61,3.51-13.53,14.71-27.03,29.46-40.68,44.06-5.91,6.32-11.91,12.6-18.34,18.37-6.31,5.66-14.08,6.12-21.29,1.64-3.49-2.17-6.84-4.83-9.6-7.87-9.09-10.04-9.47-20.15-.72-30.46,8.94-10.53,18.44-20.6,27.77-30.8,9.65-10.55,19.39-21.01,29.37-31.8-6.4-5.94-12.46-11.56-18.83-17.46h-.02ZM1256.3,447.91c9.85-14.56,11.27-31.15,3.64-46.58-13.86-28.05-47.24-47.31-82.74-26.79-12.12,7.01-22.31,16.28-30.25,27.87-14.78,21.58-14.29,45.93,1.26,66.93,17.28,23.35,46.04,29.59,69.76,14.77-3.69-7.65-7.41-15.35-11.15-23.09-3.11,1.4-5.63,2.68-8.25,3.69-11.65,4.53-22.38,2.42-30.34-5.87-8.47-8.82-11.06-20.84-5.42-31.82,8.32-16.19,20.99-28.41,37.93-35.34,10.4-4.26,20.39-1.9,28.82,5.61,7.84,6.98,11.95,15.58,9.44,26.29-.82,3.48-2.46,6.76-3.81,10.36,7.03,4.65,13.94,9.22,21.12,13.97h0ZM794.75,318.03c0-2.68.06-4.64-.01-6.59-.5-12.98-.85-25.97-1.62-38.94-.32-5.38.87-9.94,3.64-14.59,12.44-20.89,24.59-41.95,36.82-62.96.95-1.64,1.8-3.34,2.55-4.75-8.5,0-16.48.12-24.45-.06-3.26-.07-5.13,1.12-6.63,4.03-5.49,10.66-11.22,21.19-16.87,31.76-2.64,4.94-5.31,9.87-8.24,15.31-1.36-1.98-2.31-3.3-3.2-4.67-8.69-13.42-17.33-26.87-26.12-40.23-.98-1.48-2.79-3.36-4.27-3.41-9.07-.32-18.16-.16-27.24-.16-.12.57-.24,1.14-.36,1.71.87,1.35,1.71,2.71,2.61,4.03,14.49,21.16,29.04,42.28,43.42,63.51,1.4,2.06,2.27,4.81,2.45,7.3.59,8.47.75,16.97,1.1,25.45.33,7.92.71,15.83,1.04,23.22h25.36l.02.04ZM1061.04,1234.19c11.1-6.32,21.62-12.31,32.55-18.53-3.58-6.35-6.97-12.37-10.6-18.79-29.46,16.64-58.5,33.04-87.81,49.6,3.68,6.54,7.08,12.55,10.6,18.81,11.2-6.29,21.85-12.27,32.76-18.39,17.4,30.79,34.48,61.02,51.77,91.61,7.62-4.32,14.79-8.39,22.4-12.71-17.29-30.66-34.35-60.9-51.67-91.6ZM1306.51,848.01c2.6-1.8,3.92-2.68,5.21-3.61,9.03-6.55,18.15-12.99,27.02-19.74,3.23-2.46,5.49-2.89,8.99-.17,9.2,7.15,18.79,13.79,28.25,20.6.94.68,2.02,1.17,3.85,2.21-.76-2.6-1.18-4.18-1.68-5.73-3.54-10.93-6.97-21.89-10.72-32.74-1.07-3.09-.41-4.75,2.18-6.57,9.8-6.91,19.44-14.03,29.13-21.09.96-.7,1.77-1.59,3.52-3.19-13.01,0-24.8.1-36.58-.03-9.68-.11-7.56,1.75-10.72-7.84-3.72-11.28-7.39-22.58-11.43-34.93-1.01,2.44-1.67,3.75-2.11,5.12-3.51,10.76-7.15,21.48-10.37,32.32-1.18,3.98-2.88,5.59-7.25,5.47-11.65-.33-23.31-.12-34.97-.09-1.2,0-2.39.23-4.51.45,8.86,6.48,16.92,12.34,24.94,18.25,3.6,2.66,9.11,4.83,10.14,8.3,1.11,3.74-1.9,8.76-3.28,13.17-2.97,9.47-6.06,18.9-9.58,29.82l-.03.02ZM198.79,786.67c-.08.34-.17.67-.25,1.01,10.43,7.6,20.78,15.3,31.33,22.73,3.06,2.15,3.99,4.06,2.65,7.8-3.59,10.02-6.7,20.22-9.99,30.35-.73,2.25-1.36,4.52-2.46,8.17,11.43-8.27,21.66-15.4,31.54-22.97,3.68-2.82,6.37-3.95,10.11-.21,2.67,2.68,6.11,4.59,9.22,6.83,7.16,5.15,14.32,10.3,21.48,15.44-3.31-13.34-7.28-26.01-11.56-38.58-1.01-2.96-.38-4.48,2.04-6.17,7.11-4.95,14.07-10.09,21.07-15.19,3.66-2.67,7.28-5.41,10.92-8.13-.14-.36-.28-.73-.42-1.09h-30.77c-12.85,0-12.8-.02-16.66-12.16-3.16-9.93-6.46-19.82-10.16-31.12-1.18,3.4-1.9,5.36-2.54,7.33-3.4,10.45-6.9,20.87-10.09,31.38-1.03,3.39-2.56,4.76-6.25,4.66-9.15-.27-18.32-.09-27.48-.09h-11.73Z"/><path class="cls-2" d="M359.01,602.3c-3.96,7.26-7.53,13.82-11.47,21.05-37.19-20.2-74.12-40.26-111.51-60.57,5.86-10.76,11.46-21.29,17.41-31.63.58-1.02,3.42-1.45,4.97-1.09,18.8,4.4,37.56,9,56.33,13.54,8.06,1.95,16.13,3.87,24.74,4.95-20.98-19.75-41.96-39.5-63.32-59.6,6.06-11.2,12.05-22.26,18.35-33.9,37.19,20.19,74.12,40.24,111.54,60.56-3.87,7.1-7.57,13.89-11.47,21.05-28.06-15.23-55.6-30.18-83.14-45.12-.2.28-.4.57-.6.85,9.38,8.65,18.75,17.3,28.13,25.94,13.6,12.53,27.14,25.12,40.86,37.51,2.35,2.13,2.58,3.69,1.02,6.29-2.73,4.57-5.32,9.25-7.6,14.06-1.54,3.24-3.15,4.15-6.89,3.16-28.33-7.49-56.74-14.69-85.12-21.98-1.69-.44-3.4-.83-5.46-.33,27.59,15,55.17,30,83.23,45.26h0Z"/><path class="cls-2" d="M996.73,286.89c1.04.68,2.24,1.26,3.18,2.12,10.79,9.92,13.74,23.24,8.11,36.34-6.11,14.22-19.59,23.68-33.64,21.89-10.15-1.3-20.14-4.28-30.01-7.18-15.78-4.63-31.4-9.8-47.64-14.92,12.83-40.47,25.53-80.51,38.36-120.98,14.45,4.58,28.41,8.9,42.3,13.44,8.22,2.69,16.51,5.29,24.43,8.74,13.82,6.01,21.17,17.76,20.35,31.34-.69,11.49-8.54,24.36-24.07,27.73-.25.05-.42.44-1.37,1.47h0ZM927.82,312.39c9.77,3.06,18.93,5.99,28.12,8.78,3.65,1.11,7.33,2.27,11.09,2.8,7.93,1.12,14.11-2.77,16.86-10.12,2.84-7.6,1.01-15.92-6.06-19.07-12.78-5.69-26.13-10.08-39.61-15.15-3.67,11.54-6.92,21.79-10.4,32.75h0ZM944.45,259.99c9.79,3.07,18.81,5.96,27.87,8.69,2.86.86,5.82,1.56,8.78,1.83,7.41.69,12.97-3.34,14.92-10.47,1.87-6.85-.31-12.92-7.2-15.65-11.52-4.58-23.4-8.22-35.5-12.39-3.07,9.69-5.87,18.52-8.87,27.99Z"/><path class="cls-2" d="M637.9,1259.6c10.95,2.59,21.3,4.91,31.59,7.5,12.26,3.08,24.54,6.13,36.68,9.67,11.43,3.33,20.4,9.81,23.96,21.9,7.15,24.25-8.85,46.13-33.93,46.49-1.46.02-2.92,0-6.15,0,9.8,9.06,14.22,19.71,17.98,30.69,3.71,10.85,7.29,21.75,11.29,33.71-6.5-1.57-12.17-3.63-17.99-4.18-9.38-.88-13.84-5.62-16.49-14.54-3.59-12.09-9.07-23.59-13.24-35.52-4.3-12.31-14.05-15.83-25.93-17.39-4.1,16.94-8.15,33.69-12.33,50.99-8.37-2-16.39-3.91-25.02-5.98,9.88-41.19,19.67-82.01,29.57-123.32v-.02ZM651.01,1318c11.74,2.53,23.36,5.31,35.09,7.48,9.84,1.81,16.26-2.78,18.35-12.28,1.89-8.55-2.29-15.39-11.61-17.95-10.74-2.95-21.61-5.43-32.43-8.07-.75-.18-1.58-.02-2.59-.02-2.3,9.57-4.57,18.94-6.79,28.31-.14.61-.02,1.28-.02,2.55v-.02Z"/><path class="cls-2" d="M536.76,395.44c-6.97,4.04-13.56,7.85-20.73,12-21.03-36.66-41.95-73.14-63.16-110.12,7.02-4,13.71-7.99,20.63-11.55,1.14-.59,3.44.41,4.91,1.21,25.47,13.83,50.89,27.75,76.32,41.64,1.55.85,3.15,1.6,5.51,1.73-13.49-23.57-26.97-47.15-40.73-71.19,6.91-3.98,13.49-7.77,20.73-11.94,21.06,36.71,41.96,73.16,63.11,110.03-7.24,4.2-14.02,8.36-21.07,12.01-1.25.65-3.77-.46-5.39-1.33-24.49-13.2-48.92-26.5-73.37-39.76-1.9-1.03-3.82-2.01-6.64-2.41,13.21,23.09,26.43,46.19,39.88,69.69h0Z"/><path class="cls-2" d="M884.01,1280.22c7.66-2.2,14.93-4.49,22.33-6.24,1.42-.33,3.65,1.13,4.98,2.34,21.56,19.62,43.03,39.34,64.53,59.02,1.2,1.1,2.48,2.11,4.56,2.75-7.48-26.15-14.95-52.3-22.6-79.05,7.72-2.22,15.13-4.34,23.01-6.6,11.69,40.79,23.24,81.05,34.96,121.93-8.13,2.33-15.71,4.7-23.42,6.51-1.38.32-3.56-1.37-4.93-2.61-21.49-19.45-42.91-38.98-64.35-58.48-.72-.66-1.49-1.27-3.16-1.49,7.31,25.58,14.61,51.15,22.06,77.21-7.62,2.21-14.91,4.33-22.97,6.67-11.66-40.64-23.24-81.04-34.98-121.95h-.02Z"/><path class="cls-2" d="M337.57,1126.32c-4.82-7.81-9.69-15.71-14.98-24.28,6-3.76,11.84-7.42,18.21-11.42,9.73,15.59,19.29,30.93,29.23,46.86-5.5,3.49-10.76,6.85-16.04,10.17-8.04,5.04-16.06,10.13-24.2,15.01-1.39.83-3.59,1.4-5.02.92-26.67-9.09-53.82-37.84-54.29-70.64-.29-20.52,9.88-36.04,25.35-48.13,17.8-13.92,37.76-21.32,60.64-15.27,21.76,5.76,33.97,21.89,42.46,41.34,8.66,19.82,5,38.93-9.89,52.71-5.7-6.17-11.4-12.34-16.95-18.36.11-.68.07-1.06.23-1.3,8.6-12.87,8.7-23.47.31-35.61-9.19-13.3-22.02-18.8-36.72-14.79-14.18,3.87-26.23,11.58-35.15,23.4-12.01,15.91-7.96,36.97,9.27,50.18.92.71,1.89,1.37,2.86,2.01,11.24,7.47,14.06,7.18,24.67-2.78v-.02Z"/><path class="cls-2" d="M348.15,413.91c-.25-21.8,8.88-35.94,21.93-47.92,23.82-21.86,53.68-22.63,78.86-2.31,14.46,11.66,26.09,25.44,29.75,44.2,4.33,22.23-4.33,40.21-20.22,55.03-27.24,25.4-61.06,23.36-88.45-5.01-12.73-13.19-21.92-28.06-21.87-43.98h0ZM416.13,455.36c29.97-.22,45.95-25.68,35.13-47.89-6.54-13.43-16.79-23.54-30.03-30.34-24.95-12.81-47.96,10.49-48.33,28.79-.27,13.07,6.19,22.85,14.64,31.69,9.26,9.68,19.55,17.65,28.6,17.75h-.01Z"/><path class="cls-2" d="M1311.59,465.91c4.14,7.7,8.05,14.98,12.19,22.67-16.22,8.8-31.98,17.34-48.98,26.56,3,.85,4.79,1.41,6.61,1.88,20.98,5.34,41.99,10.58,62.92,16.13,2.22.59,4.66,2.53,5.83,4.53,4.91,8.41,9.37,17.08,14.57,26.73-13.83-3.85-26.44-7.36-39.05-10.88-7.7-2.15-15.45-4.14-23.07-6.55-3.19-1.01-4.6-.31-6.18,2.63-12.95,24.05-26.09,48-39.18,71.98-.79,1.45-1.65,2.87-2.99,5.21-3.38-6.21-5.89-12.21-9.6-17.34-5.99-8.29-5.27-15.04.59-23.53,10.29-14.89,19.06-30.84,28.92-47.09-9.41-2.69-18.27-5.34-27.21-7.65-1.32-.34-3.16.7-4.58,1.45-9.97,5.29-19.9,10.66-30.25,16.23-4.1-7.62-8.02-14.89-12.22-22.68,37.29-20.13,74.31-40.11,111.65-60.27h.03Z"/><path class="cls-2" d="M1250.8,1125.8c9.7,6.46,18.93,12.6,28.54,19,13.21-19.77,26.12-39.1,39.28-58.82,6.06,4.03,11.71,7.79,17.92,11.92-17.83,26.76-35.51,53.31-53.55,80.38-35.27-23.51-70.24-46.83-105.63-70.43,17.51-26.27,34.74-52.13,52.21-78.33,6.19,4.11,11.95,7.95,18.02,11.98-12.72,19.09-25.16,37.76-37.86,56.84,7.71,5.17,15.11,10.14,23.11,15.5,11.78-17.64,23.39-35.01,35.32-52.88,6.07,4.06,11.8,7.9,17.93,12-11.79,17.65-23.31,34.92-35.27,52.84h-.02Z"/><path class="cls-2" d="M1180.23,1281.48c-28.86-31.38-57.23-62.21-85.93-93.41,23.23-21.38,46.08-42.41,69.2-63.69,4.93,5.29,9.56,10.27,14.72,15.83-16.67,15.38-33.24,30.65-50.25,46.34,6.23,6.76,12.27,13.31,18.84,20.44,15.59-14.32,30.96-28.44,46.81-43,4.83,5.26,9.49,10.35,14.55,15.86-15.55,14.35-30.92,28.52-46.69,43.07,7.75,8.43,15.25,16.59,23.12,25.16,17.35-15.93,34.47-31.65,52.12-47.85,4.84,5.25,9.5,10.32,14.57,15.83-23.71,21.83-47.17,43.43-71.06,65.42h0Z"/><path class="cls-2" d="M681.08,200.99c1.99,6.95,3.85,13.46,5.94,20.74-21.83,6.19-43.48,12.33-65.71,18.64,2.48,8.9,4.88,17.49,7.48,26.8,20.33-5.71,40.43-11.36,61.2-17.2,1.96,6.85,3.85,13.49,5.9,20.65-20.49,5.81-40.59,11.5-61.19,17.33,3.13,11.09,6.13,21.74,9.29,32.94,22.79-6.41,45.15-12.69,68.09-19.14,1.95,6.91,3.83,13.53,5.85,20.69-31.01,8.76-61.54,17.38-92.87,26.22-11.51-40.73-22.93-81.14-34.51-122.1,30.32-8.56,60.17-16.99,90.54-25.57h0Z"/><path class="cls-2" d="M1110.87,426.07c-7.7-4.84-14.79-9.13-21.66-13.77-1.02-.69-1.52-3.1-1.28-4.55,1.27-7.55,2.73-15.08,4.4-22.55.68-3.03.17-4.82-2.64-6.53-12.22-7.46-24.32-15.12-36.38-22.84-2.16-1.38-3.64-1.42-5.66.23-6.07,4.93-12.26,9.74-18.56,14.38-1.21.89-3.62,1.66-4.66,1.06-7.02-4.05-13.81-8.47-21.37-13.21,6.58-4.92,12.51-9.39,18.47-13.81,29.03-21.52,58.11-42.98,87.07-64.6,2.83-2.12,4.88-2.45,7.85-.37,5.31,3.72,11.01,6.9,16.34,10.6,1.17.81,2.3,2.99,2.07,4.29-7.83,43.57-15.83,87.12-23.99,131.67h0ZM1097.58,358.25c3.39-16.29,6.6-31.67,9.8-47.05-.37-.16-.74-.31-1.11-.47-12.36,9.63-24.72,19.25-37.61,29.29,9.82,6.19,18.91,11.92,28.93,18.23h-.01Z"/><path class="cls-2" d="M749.66,1412.35c.95-2.82,1.78-5.46,2.73-8.05,13.98-38.31,28.01-76.6,41.9-114.94,1.11-3.07,2.42-4.6,5.94-4.51,6.65.18,13.32-.27,19.97-.11,1.39.03,3.49,1.25,4.01,2.46,17.33,40.38,34.5,80.83,51.68,121.28.11.27-.02.64-.1,2.25-8.47,0-17.02.12-25.56-.15-1.05-.03-2.4-2-2.98-3.34-3.05-7.02-6.03-14.08-8.73-21.24-1.04-2.76-2.44-3.89-5.42-3.8-14.48.44-28.96.61-43.44,1.16-1.43.05-3.54,1.7-4.07,3.09-2.73,7.15-5.16,14.42-7.44,21.73-.91,2.92-2.16,4.38-5.51,4.26-7.43-.25-14.87-.08-22.96-.08h-.02ZM794.17,1360.95h34.07c-6.15-15.48-11.98-30.15-18.34-46.15-5.58,16.38-10.62,31.16-15.73,46.15Z"/><path class="cls-2" d="M455.61,1309.38c6.95-6.06,13.4-11.74,19.92-17.34,26.42-22.67,52.9-45.26,79.23-68.03,2.94-2.55,5.13-3.29,8.64-1.1,5.07,3.17,10.46,5.86,15.84,8.5,2.62,1.29,3.53,2.8,3.19,5.81-3.37,29.79-6.59,59.59-9.84,89.39-1.52,13.9-3.03,27.8-4.66,42.7-8.2-4.41-15.92-8.45-23.47-12.78-.79-.45-.94-2.67-.79-4.01.87-7.78,1.78-15.56,2.97-23.29.43-2.8-.38-4.21-2.82-5.49-12.84-6.71-25.63-13.51-38.34-20.46-2.59-1.42-4.12-.79-6.05,1.03-5.71,5.35-11.53,10.59-17.46,15.7-1,.86-3.15,1.57-4.15,1.08-7.28-3.6-14.39-7.53-22.19-11.69l-.02-.02ZM549.82,1302.57c2.21-16.49,4.3-32.04,6.38-47.59-.34-.17-.67-.33-1.01-.5-11.68,10.49-23.36,20.99-35.59,31.97,10.22,5.45,19.82,10.58,30.22,16.13h0Z"/><path class="cls-2" d="M433.22,1121.05c6.37,5.91,12.42,11.52,18.83,17.46-9.98,10.8-19.72,21.26-29.37,31.8-9.33,10.2-18.83,20.26-27.77,30.8-8.75,10.31-8.36,20.43.72,30.46,2.75,3.04,6.11,5.7,9.6,7.87,7.21,4.48,14.97,4.03,21.29-1.64,6.43-5.77,12.43-12.05,18.34-18.37,13.65-14.6,27.15-29.35,40.68-44.06.9-.98,1.6-2.14,2.61-3.51,6.74,6.23,12.82,11.84,19.29,17.82-6.52,7.09-12.72,14-19.1,20.74-14.42,15.24-28.46,30.89-43.54,45.46-15.42,14.91-32.81,15.85-50.41,3.57-12.37-8.63-23.74-18.56-29.11-33.33-4.46-12.26-3.11-24.14,4.88-34.57,6.88-8.97,14.28-17.57,21.83-25.99,11.91-13.26,24.14-26.23,36.24-39.31,1.56-1.69,3.19-3.32,4.97-5.19h.02Z"/><path class="cls-2" d="M1256.3,447.91c-7.17-4.75-14.09-9.32-21.12-13.97,1.35-3.6,2.99-6.88,3.81-10.36,2.51-10.71-1.6-19.3-9.44-26.29-8.42-7.5-18.42-9.86-28.82-5.61-16.94,6.93-29.61,19.15-37.93,35.34-5.64,10.98-3.06,22.99,5.42,31.82,7.96,8.29,18.69,10.39,30.34,5.87,2.62-1.02,5.14-2.29,8.25-3.69,3.74,7.74,7.46,15.44,11.15,23.09-23.72,14.82-52.48,8.58-69.76-14.77-15.54-21.01-16.04-45.35-1.26-66.93,7.94-11.59,18.13-20.86,30.25-27.87,35.5-20.51,68.87-1.25,82.74,26.79,7.63,15.43,6.21,32.02-3.64,46.58h0Z"/><path class="cls-2" d="M794.75,318.03h-25.36c-.33-7.39-.71-15.3-1.04-23.22-.36-8.49-.51-16.99-1.1-25.45-.18-2.5-1.05-5.24-2.45-7.3-14.38-21.24-28.93-42.36-43.42-63.51-.9-1.32-1.74-2.69-2.61-4.03.12-.57.24-1.14.36-1.71,9.08,0,18.17-.16,27.24.16,1.48.05,3.29,1.93,4.27,3.41,8.79,13.35,17.43,26.81,26.12,40.23.89,1.37,1.84,2.69,3.2,4.67,2.93-5.44,5.59-10.37,8.24-15.31,5.65-10.57,11.38-21.1,16.87-31.76,1.5-2.91,3.36-4.11,6.63-4.03,7.97.17,15.95.06,24.45.06-.76,1.41-1.6,3.11-2.55,4.75-12.24,21.01-24.38,42.07-36.82,62.96-2.77,4.65-3.96,9.21-3.64,14.59.77,12.97,1.13,25.96,1.62,38.94.07,1.95.01,3.9.01,6.59l-.02-.04Z"/><path class="cls-2" d="M1061.04,1234.19c17.32,30.7,34.37,60.94,51.67,91.6-7.62,4.32-14.78,8.39-22.4,12.71-17.29-30.59-34.37-60.83-51.77-91.61-10.91,6.12-21.56,12.1-32.76,18.39-3.53-6.26-6.92-12.27-10.6-18.81,29.32-16.56,58.35-32.96,87.81-49.6,3.62,6.42,7.02,12.44,10.6,18.79-10.93,6.22-21.45,12.21-32.55,18.53h0Z"/><path class="cls-2" d="M1306.51,848.01c3.51-10.92,6.6-20.35,9.58-29.82,1.39-4.41,4.39-9.44,3.28-13.17-1.03-3.47-6.54-5.65-10.14-8.3-8.02-5.91-16.08-11.77-24.94-18.25,2.12-.22,3.32-.44,4.51-.45,11.66-.03,23.32-.24,34.97.09,4.37.12,6.07-1.49,7.25-5.47,3.22-10.84,6.86-21.56,10.37-32.32.45-1.38,1.1-2.69,2.11-5.12,4.04,12.35,7.71,23.64,11.43,34.93,3.16,9.59,1.04,7.73,10.72,7.84,11.78.13,23.57.03,36.58.03-1.75,1.6-2.56,2.49-3.52,3.19-9.68,7.07-19.33,14.18-29.13,21.09-2.59,1.82-3.25,3.48-2.18,6.57,3.75,10.85,7.18,21.82,10.72,32.74.5,1.55.92,3.13,1.68,5.73-1.83-1.05-2.91-1.54-3.85-2.21-9.46-6.82-19.05-13.45-28.25-20.6-3.5-2.72-5.76-2.29-8.99.17-8.88,6.75-17.99,13.19-27.02,19.74-1.28.93-2.61,1.81-5.21,3.61l.03-.02Z"/><path class="cls-2" d="M198.79,786.67h11.71c9.16,0,18.33-.18,27.48.09,3.69.11,5.22-1.26,6.25-4.66,3.19-10.51,6.69-20.93,10.09-31.38.64-1.98,1.36-3.93,2.54-7.33,3.7,11.3,7,21.19,10.16,31.12,3.87,12.15,3.81,12.16,16.66,12.16h30.77c.14.36.28.73.42,1.09-3.64,2.71-7.25,5.45-10.92,8.13-7,5.1-13.96,10.25-21.07,15.19-2.42,1.69-3.05,3.21-2.04,6.17,4.28,12.57,8.25,25.24,11.56,38.58-7.16-5.15-14.33-10.29-21.48-15.44-3.11-2.24-6.54-4.15-9.22-6.83-3.74-3.75-6.43-2.61-10.11.21-9.89,7.57-20.12,14.7-31.54,22.97,1.1-3.65,1.73-5.93,2.46-8.17,3.28-10.13,6.4-20.33,9.99-30.35,1.34-3.73.4-5.65-2.65-7.8-10.55-7.43-20.9-15.13-31.33-22.73.08-.34.17-.67.25-1.01h.02Z"/><path class="cls-1" d="M927.82,312.39c3.48-10.96,6.73-21.2,10.4-32.75,13.48,5.07,26.83,9.46,39.61,15.15,7.07,3.15,8.9,11.47,6.06,19.07-2.75,7.36-8.93,11.24-16.86,10.12-3.75-.53-7.44-1.69-11.09-2.8-9.19-2.79-18.35-5.72-28.12-8.78h0Z"/><path class="cls-1" d="M944.45,259.99c3-9.47,5.8-18.3,8.87-27.99,12.1,4.17,23.98,7.81,35.5,12.39,6.88,2.73,9.07,8.8,7.2,15.65-1.95,7.13-7.51,11.16-14.92,10.47-2.96-.28-5.92-.97-8.78-1.83-9.07-2.73-18.08-5.62-27.87-8.69Z"/><path class="cls-1" d="M651.01,1318c0-1.27-.13-1.94.02-2.55,2.23-9.37,4.49-18.73,6.79-28.31,1.01,0,1.84-.16,2.59.02,10.82,2.64,21.69,5.12,32.43,8.07,9.32,2.56,13.5,9.4,11.61,17.95-2.1,9.5-8.51,14.1-18.35,12.28-11.73-2.16-23.35-4.95-35.09-7.48v.02Z"/><path class="cls-1" d="M416.13,455.36c-9.05-.1-19.34-8.07-28.6-17.75-8.45-8.84-14.9-18.61-14.64-31.69.37-18.3,23.38-41.6,48.33-28.79,13.25,6.8,23.49,16.91,30.03,30.34,10.82,22.2-5.16,47.66-35.13,47.89h.01Z"/><path class="cls-1" d="M1097.58,358.25c-10.01-6.31-19.11-12.05-28.93-18.23,12.89-10.04,25.25-19.66,37.61-29.29.37.16.74.31,1.11.47-3.2,15.38-6.41,30.76-9.8,47.05h.01Z"/><path class="cls-1" d="M794.17,1360.95c5.11-15,10.15-29.78,15.73-46.15,6.36,16,12.19,30.67,18.34,46.15h-34.07Z"/><path class="cls-1" d="M549.82,1302.57c-10.4-5.55-20-10.67-30.22-16.13,12.22-10.98,23.91-21.47,35.59-31.97.34.17.67.33,1.01.5-2.09,15.55-4.17,31.11-6.38,47.59h0Z"/><g class="cls-3"><g class="cls-3"><path class="cls-1" d="M479.03,754.13v-37.96c4.68.35,9.49-.69,14.43-3.12,4.94-2.43,9.79-5.68,14.56-9.75,4.77-4.07,8.97-8.1,12.61-12.09l26.52,25.74c-6.41,7.28-13.26,13.91-20.54,19.89-7.28,5.98-14.82,10.57-22.62,13.78-7.8,3.21-16.12,4.38-24.96,3.51ZM516.47,873.73v-159.64l4.16-22.36h35.62v182h-39.78Z"/><path class="cls-1" d="M663.63,876.85c-14.91,0-28.17-4.03-39.78-12.09-11.61-8.06-20.67-19.15-27.17-33.28-6.5-14.12-9.75-30.38-9.75-48.75s3.25-34.62,9.75-48.75c6.5-14.13,15.51-25.22,27.04-33.28,11.53-8.06,24.74-12.09,39.65-12.09s28.42,4.03,40.04,12.09c11.61,8.06,20.75,19.15,27.43,33.28,6.67,14.13,10.01,30.38,10.01,48.75s-3.29,34.62-9.88,48.75c-6.59,14.13-15.69,25.22-27.3,33.28-11.61,8.06-24.96,12.09-40.04,12.09ZM663.89,838.89c6.93,0,13.13-2.43,18.59-7.28,5.46-4.85,9.75-11.48,12.87-19.89,3.12-8.41,4.68-18.07,4.68-28.99s-1.56-20.89-4.68-29.38c-3.12-8.49-7.45-15.17-13-20.02-5.55-4.85-11.87-7.28-18.98-7.28s-13.09,2.43-18.46,7.28c-5.38,4.86-9.58,11.53-12.61,20.02-3.03,8.49-4.55,18.29-4.55,29.38s1.52,20.63,4.55,29.12c3.03,8.49,7.28,15.12,12.74,19.89,5.46,4.77,11.74,7.15,18.85,7.15Z"/><path class="cls-1" d="M833.15,876.85c-14.91,0-28.17-4.03-39.78-12.09-11.61-8.06-20.67-19.15-27.17-33.28-6.5-14.12-9.75-30.38-9.75-48.75s3.25-34.62,9.75-48.75c6.5-14.13,15.51-25.22,27.04-33.28,11.52-8.06,24.74-12.09,39.65-12.09s28.42,4.03,40.04,12.09c11.61,8.06,20.75,19.15,27.43,33.28,6.67,14.13,10.01,30.38,10.01,48.75s-3.29,34.62-9.88,48.75c-6.59,14.13-15.69,25.22-27.3,33.28-11.61,8.06-24.96,12.09-40.04,12.09ZM833.41,838.89c6.93,0,13.13-2.43,18.59-7.28,5.46-4.85,9.75-11.48,12.87-19.89,3.12-8.41,4.68-18.07,4.68-28.99s-1.56-20.89-4.68-29.38c-3.12-8.49-7.45-15.17-13-20.02-5.55-4.85-11.87-7.28-18.98-7.28s-13.09,2.43-18.46,7.28c-5.38,4.86-9.58,11.53-12.61,20.02-3.03,8.49-4.55,18.29-4.55,29.38s1.52,20.63,4.55,29.12c3.03,8.49,7.28,15.12,12.74,19.89,5.46,4.77,11.74,7.15,18.85,7.15Z"/><path class="cls-1" d="M971.21,779.35c-8.32,0-15.77-1.95-22.36-5.85-6.59-3.9-11.7-9.31-15.34-16.25-3.64-6.93-5.46-14.82-5.46-23.66s1.82-17.2,5.46-24.05c3.64-6.85,8.75-12.22,15.34-16.12,6.59-3.9,14.04-5.85,22.36-5.85s15.95,1.99,22.36,5.98c6.41,3.99,11.48,9.4,15.21,16.25,3.72,6.85,5.59,14.78,5.59,23.79s-1.87,16.73-5.59,23.66c-3.73,6.94-8.8,12.35-15.21,16.25-6.42,3.9-13.87,5.85-22.36,5.85ZM940.53,873.73l129.22-182h39l-130,182h-38.22ZM971.21,753.61c4.68,0,8.49-1.95,11.44-5.85,2.95-3.9,4.42-8.62,4.42-14.17s-1.47-10.49-4.42-14.3c-2.95-3.81-6.76-5.72-11.44-5.72s-8.5,1.91-11.44,5.72c-2.95,3.81-4.42,8.58-4.42,14.3s1.47,10.27,4.42,14.17c2.95,3.9,6.76,5.85,11.44,5.85ZM1079.89,877.63c-8.49,0-15.99-1.95-22.49-5.85-6.5-3.9-11.57-9.32-15.21-16.25-3.64-6.93-5.46-14.82-5.46-23.66s1.82-17.2,5.46-24.05c3.64-6.84,8.71-12.22,15.21-16.12,6.5-3.9,14-5.85,22.49-5.85s15.95,1.99,22.36,5.98c6.41,3.99,11.44,9.41,15.08,16.25,3.64,6.85,5.46,14.78,5.46,23.79s-1.82,16.73-5.46,23.66c-3.64,6.93-8.71,12.35-15.21,16.25-6.5,3.9-13.91,5.85-22.23,5.85ZM1079.63,851.89c4.85,0,8.75-1.95,11.7-5.85,2.95-3.9,4.42-8.62,4.42-14.17s-1.47-10.49-4.42-14.3c-2.95-3.81-6.85-5.72-11.7-5.72s-8.45,1.91-11.31,5.72c-2.86,3.81-4.29,8.58-4.29,14.3s1.43,10.27,4.29,14.17c2.86,3.9,6.63,5.85,11.31,5.85Z"/></g></g></svg>