<?xml version="1.0" encoding="UTF-8"?><svg id="Layer_1" xmlns="http://www.w3.org/2000/svg" viewBox="0 0 540 334.87"><defs><style>.cls-1{fill:#f9c316;}</style></defs><polygon class="cls-1" points="78.31 0 102.51 49.03 156.62 56.89 117.46 95.06 126.71 148.95 78.31 123.51 29.91 148.95 39.15 95.06 0 56.89 54.11 49.03 78.31 0"/><polygon class="cls-1" points="270 0 294.2 49.03 348.31 56.89 309.15 95.06 318.4 148.95 270 123.51 221.6 148.95 230.85 95.06 191.69 56.89 245.8 49.03 270 0"/><polygon class="cls-1" points="461.69 0 485.89 49.03 540 56.89 500.85 95.06 510.09 148.95 461.69 123.51 413.29 148.95 422.54 95.06 383.38 56.89 437.49 49.03 461.69 0"/><polygon class="cls-1" points="175.81 185.91 200.01 234.94 254.12 242.81 214.97 280.97 224.21 334.86 175.81 309.42 127.42 334.86 136.66 280.97 97.5 242.81 151.61 234.94 175.81 185.91"/><polygon class="cls-1" points="375.96 203.04 367.5 185.91 343.31 234.94 289.2 242.81 328.35 280.97 319.11 334.87 367.5 309.42 375.96 313.86 375.96 203.04"/><path d="M78.31,14.78l18.33,37.15,1.52,3.08,3.4.49,40.99,5.96-29.66,28.91-2.46,2.4.58,3.39,7,40.83-36.66-19.28-3.04-1.6-3.04,1.6-36.66,19.28,7-40.83.58-3.39-2.46-2.4-29.66-28.91,40.99-5.96,3.4-.49,1.52-3.08,18.33-37.15M78.31,0l-24.2,49.03L0,56.89l39.15,38.17-9.24,53.89,48.4-25.44,48.4,25.44-9.24-53.89,39.15-38.17-54.11-7.86L78.31,0h0Z"/><path d="M270,14.78l18.33,37.15,1.52,3.08,3.4.49,40.99,5.96-29.66,28.91-2.46,2.4.58,3.39,7,40.83-36.66-19.28-3.04-1.6-3.04,1.6-36.66,19.28,7-40.83.58-3.39-2.46-2.4-29.66-28.91,40.99-5.96,3.4-.49,1.52-3.08,18.33-37.15M270,0l-24.2,49.03-54.11,7.86,39.15,38.17-9.24,53.89,48.4-25.44,48.4,25.44-9.24-53.89,39.15-38.17-54.11-7.86L270,0h0Z"/><path d="M461.69,14.78l18.33,37.15,1.52,3.08,3.4.49,40.99,5.96-29.66,28.91-2.46,2.4.58,3.39,7,40.83-36.66-19.28-3.04-1.6-3.04,1.6-36.66,19.28,7-40.83.58-3.39-2.46-2.4-29.66-28.91,40.99-5.96,3.4-.49,1.52-3.08,18.33-37.15M461.69,0l-24.2,49.03-54.11,7.86,39.15,38.17-9.24,53.89,48.4-25.44,48.4,25.44-9.24-53.89,39.15-38.17-54.11-7.86L461.69,0h0Z"/><path d="M175.81,200.69l18.33,37.15,1.52,3.08,3.4.49,40.99,5.96-29.66,28.91-2.46,2.4.58,3.39,7,40.83-36.66-19.28-3.04-1.6-3.04,1.6-36.66,19.28,7-40.83.58-3.39-2.46-2.4-29.66-28.91,40.99-5.96,3.4-.49,1.52-3.08,18.33-37.15M175.81,185.91l-24.2,49.03-54.11,7.86,39.15,38.17-9.24,53.89,48.4-25.44,48.4,25.44-9.24-53.89,39.15-38.17-54.11-7.86-24.2-49.03h0Z"/><path d="M367.5,200.69l18.33,37.15,1.52,3.08,3.4.49,40.99,5.96-29.66,28.91-2.46,2.4.58,3.39,7,40.83-36.66-19.28-3.04-1.6-3.04,1.6-36.66,19.28,7-40.83.58-3.39-2.46-2.4-29.66-28.91,40.99-5.96,3.4-.49,1.52-3.08,18.33-37.15M367.5,185.91l-24.2,49.03-54.11,7.86,39.15,38.17-9.24,53.89,48.4-25.44,48.4,25.44-9.24-53.89,39.15-38.17-54.11-7.86-24.2-49.03h0Z"/></svg>